<svg width="69" height="44" viewBox="0 0 69 44" fill="none" xmlns="http://www.w3.org/2000/svg">
<ellipse cx="34.5" cy="26" rx="34.5" ry="18" fill="#4D7766"/>
<g filter="url(#filter0_d_0_1)">
<path d="M26.0904 8.3602C26.0483 8.33772 26.0156 8.32036 25.9895 8.30544C25.7596 8.19115 26.6364 8.53401 26.5 8.5C26.422 8.48228 26.2823 8.42744 26.0904 8.3602C26.3036 8.4741 26.7553 8.71959 27.7739 9.44594C28.3159 9.83238 29.1923 10.2687 29.89 10.7586C30.5876 11.2484 31.1039 11.7422 33.9853 14.1294C36.8666 16.5165 42.0974 20.7819 45.1848 23.417C48.2723 26.0521 49.058 26.9276 49.3618 27.3674C49.6655 27.8072 49.4635 27.7848 47.9114 27.7058C46.3593 27.6269 43.4634 27.4922 41.1521 27.2657C38.8408 27.0392 37.202 26.7249 34.023 25.9681C30.8441 25.2112 26.1746 24.0214 23.4211 23.3636C20.6677 22.7057 19.9717 22.6159 19.5795 22.5585C18.9808 22.4707 18.622 22.3656 18.1679 22.2629C17.7675 22.1723 17.4424 22.0486 17.0108 21.8326C16.9553 21.8048 17.0982 21.7084 17.8071 21.4829C18.5159 21.2574 19.818 20.8758 20.601 20.6679C21.5999 20.4028 22.1092 20.3472 22.7418 20.2227C24.2033 19.9351 24.8535 19.8485 25.5222 19.6669C25.9701 19.5452 26.4181 19.4853 26.8947 19.338C27.45 19.1663 27.9147 19.0771 28.2559 18.9975C28.6333 18.9094 29.0032 18.8281 29.4348 18.7142C29.526 18.6901 29.5937 18.6689 29.5947 18.6012C29.601 18.1854 29.008 17.7873 28.3195 16.8284C27.8639 16.1938 27.2494 15.2185 26.847 14.5528C25.998 13.1484 25.8317 12.7518 25.6501 12.2304C25.5195 11.8555 25.4004 11.5041 25.2419 11.1752C25.0788 10.8367 24.9691 10.4837 24.845 10.2C24.6953 9.85814 24.5392 9.53132 24.4252 9.19117C24.366 9.01431 24.2446 8.67075 24.0633 8.26292C23.9922 8.10294 23.9718 8.03469 24.1847 7.99999C25.0025 8.00699 25.671 8.21321 26.0904 8.3602Z" fill="url(#paint0_linear_0_1)" fill-opacity="0.5" shape-rendering="crispEdges"/>
<path d="M25.9895 8.30544C26.1474 8.39592 26.5542 8.57619 27.7739 9.44594C28.3159 9.83238 29.1923 10.2687 29.89 10.7586C30.5876 11.2484 31.1039 11.7422 33.9853 14.1294C36.8666 16.5165 42.0974 20.7819 45.1848 23.417C48.2723 26.0521 49.058 26.9276 49.3618 27.3674C49.6655 27.8072 49.4635 27.7848 47.9114 27.7058C46.3593 27.6269 43.4634 27.4922 41.1521 27.2657C38.8408 27.0392 37.202 26.7249 34.023 25.9681C30.8441 25.2112 26.1746 24.0214 23.4211 23.3636C20.6677 22.7057 19.9717 22.6159 19.5795 22.5585C18.9808 22.4707 18.622 22.3656 18.1679 22.2629C17.7675 22.1723 17.4424 22.0486 17.0108 21.8326C16.9553 21.8048 17.0982 21.7084 17.8071 21.4829C18.5159 21.2574 19.818 20.8758 20.601 20.6679C21.5999 20.4028 22.1092 20.3472 22.7418 20.2227C24.2033 19.9351 24.8535 19.8485 25.5222 19.6669C25.9701 19.5452 26.4181 19.4853 26.8947 19.338C27.45 19.1663 27.9147 19.0771 28.2559 18.9975C28.6333 18.9094 29.0032 18.8281 29.4348 18.7142C29.526 18.6901 29.5937 18.6689 29.5947 18.6012C29.601 18.1854 29.008 17.7873 28.3195 16.8284C27.8639 16.1938 27.2494 15.2185 26.847 14.5528C25.998 13.1484 25.8317 12.7518 25.6501 12.2304C25.5195 11.8555 25.4004 11.5041 25.2419 11.1752C25.0788 10.8367 24.9691 10.4837 24.845 10.2C24.6953 9.85814 24.5392 9.53132 24.4252 9.19117C24.366 9.01431 24.2446 8.67075 24.0633 8.26292C23.9922 8.10294 23.9718 8.03469 24.1847 7.99999C25.3766 8.0102 26.2514 8.44354 26.5 8.5C26.6364 8.53401 25.7596 8.19115 25.9895 8.30544Z" stroke="url(#paint1_linear_0_1)" stroke-width="2" stroke-linecap="round" shape-rendering="crispEdges"/>
</g>
<path d="M47.0182 15.0566C47.0182 15.0117 47.2651 14.7192 48.0321 13.7835C48.568 13.1297 49.3379 12.062 49.8437 11.3389C50.5849 10.2791 50.8944 9.43746 51.1097 8.6786C51.2403 8.21851 51.3033 7.89253 51.4165 7.69933C51.4605 7.62431 51.6652 8.27213 52.1615 10.3327C52.5522 11.9552 53.0169 14.7954 53.3166 16.3311C53.6162 17.8669 53.6836 18.024 53.752 18.1162C53.8578 18.2589 54.0918 18.254 54.3408 18.2427C54.5474 18.2334 55.4006 17.8267 56.9388 17.0468C57.7252 16.648 58.4769 16.1546 59.1844 15.7995C61.2492 14.7631 61.8246 14.9661 62.062 14.9321C62.1864 14.9143 62.3219 14.9206 62.0882 15.6165C61.8545 16.3124 61.2484 17.7043 60.4984 19.0948C59.7483 20.4853 58.8728 21.8323 58.3993 22.5711C57.9259 23.3099 57.881 23.3997 57.7667 23.5602" stroke="#47A389" stroke-width="2" stroke-linecap="round"/>
<path d="M10.9427 32.0593C11.023 31.9513 11.3201 31.7362 12.1124 30.7158C12.7764 29.8606 13.9493 28.3026 14.6503 27.5825C15.3512 26.8625 15.5387 27.0233 15.7023 27.24C15.8658 27.4567 15.9998 27.7246 16.2295 28.5189C16.4592 29.3132 16.7807 30.6257 17.0132 31.8377C17.4491 34.1089 17.5177 35.3054 17.5445 35.3602C17.7319 35.7436 17.7872 34.5237 18.9196 33.0666C19.8971 31.8089 21.0845 31.3044 22.3699 31.1931C22.657 31.1683 22.8443 31.2735 23.0213 31.4217C23.4164 31.7524 23.8192 32.7557 24.3594 33.9583C25.0661 35.7056 25.2292 37.252 25.2158 37.6574C25.2024 37.8218 25.1756 37.9022 24.9857 37.8226" stroke="#47A389" stroke-width="2" stroke-linecap="round"/>
<path d="M30 19C30.4456 19.2123 31.3586 19.7212 32.7064 20.4859C33.5267 20.913 34.6239 21.4193 35.2734 21.7013C35.923 21.9833 36.0918 22.0255 36.4575 22.0689" stroke="black" stroke-width="2" stroke-linecap="round"/>
<path d="M30 19C30.4456 19.2123 31.3586 19.7212 32.7064 20.4859C33.5267 20.913 34.6239 21.4193 35.2734 21.7013C35.923 21.9833 36.0918 22.0255 36.4575 22.0689" stroke="url(#paint2_linear_0_1)" stroke-width="2" stroke-linecap="round"/>
<defs>
<filter id="filter0_d_0_1" x="8" y="-0.000701904" width="50.4816" height="37.7518" filterUnits="userSpaceOnUse" color-interpolation-filters="sRGB">
<feFlood flood-opacity="0" result="BackgroundImageFix"/>
<feColorMatrix in="SourceAlpha" type="matrix" values="0 0 0 0 0 0 0 0 0 0 0 0 0 0 0 0 0 0 127 0" result="hardAlpha"/>
<feOffset dy="1"/>
<feGaussianBlur stdDeviation="4"/>
<feComposite in2="hardAlpha" operator="out"/>
<feColorMatrix type="matrix" values="0 0 0 0 0 0 0 0 0 0 0 0 0 0 0 0 0 0 0.5 0"/>
<feBlend mode="normal" in2="BackgroundImageFix" result="effect1_dropShadow_0_1"/>
<feBlend mode="normal" in="SourceGraphic" in2="effect1_dropShadow_0_1" result="shape"/>
</filter>
<linearGradient id="paint0_linear_0_1" x1="33.2408" y1="7.99999" x2="33.2408" y2="27.751" gradientUnits="userSpaceOnUse">
<stop stop-color="#FF3434"/>
<stop offset="1" stop-color="#FF49A1"/>
</linearGradient>
<linearGradient id="paint1_linear_0_1" x1="22.5864" y1="8" x2="30.4119" y2="32.1246" gradientUnits="userSpaceOnUse">
<stop stop-color="#FF3434"/>
<stop offset="1" stop-color="#FF49A1"/>
</linearGradient>
<linearGradient id="paint2_linear_0_1" x1="31.1106" y1="19" x2="32.0975" y2="22.8927" gradientUnits="userSpaceOnUse">
<stop stop-color="#FF3E69"/>
<stop offset="1" stop-color="#FF49A1"/>
</linearGradient>
</defs>
</svg>
