<svg width="400" height="230" viewBox="0 0 400 230" fill="none" xmlns="http://www.w3.org/2000/svg">
<g clip-path="url(#clip0_3331_7)">
<g opacity="0.5">
<mask id="mask0_3331_7" style="mask-type:luminance" maskUnits="userSpaceOnUse" x="-34" y="3" width="247" height="247">
<path d="M100.058 2.99996L-34 115.488L78.4878 249.546L212.546 137.058L100.058 2.99996Z" fill="white"/>
</mask>
<g mask="url(#mask0_3331_7)">
<path d="M97.4413 58.1481C102.311 53.361 110.556 56.4016 111.149 63.2053L119.926 163.654C120.588 171.236 111.356 175.442 106.069 169.968L78.1131 141.017C76.4929 139.34 74.2265 138.444 71.8971 138.561L70.5682 138.628L31.9199 142.761C24.3105 143.575 19.9414 134.335 25.3988 128.97L97.4413 58.1481Z" stroke="#FF5757" stroke-width="8"/>
<path d="M105.059 58.755L76.5791 137.001" stroke="#FF5757" stroke-width="8" stroke-linecap="round"/>
</g>
</g>
<path opacity="0.5" d="M379.083 115.5C379.083 164.975 338.976 205.083 289.5 205.083M379.083 115.5C379.083 66.0243 338.976 25.9165 289.5 25.9165M379.083 115.5H199.917M289.5 205.083C240.025 205.083 199.917 164.975 199.917 115.5M289.5 205.083C266.497 180.93 253.667 148.854 253.667 115.5C253.667 82.1456 266.497 50.0695 289.5 25.9165M289.5 205.083C312.503 180.93 325.333 148.854 325.333 115.5C325.333 82.1456 312.503 50.0695 289.5 25.9165M199.917 115.5C199.917 66.0243 240.025 25.9165 289.5 25.9165" stroke="white" stroke-width="10" stroke-linecap="round" stroke-linejoin="round"/>
<path d="M202 27L378.777 203.777" stroke="#FF5757" stroke-width="15" stroke-linecap="round"/>
<path d="M189.319 93.1763L170 87.9999" stroke="white" stroke-opacity="0.5" stroke-width="4" stroke-linecap="round"/>
<path d="M180 115H160" stroke="white" stroke-opacity="0.5" stroke-width="4" stroke-linecap="round"/>
<path d="M189.319 137L170 142.176" stroke="white" stroke-opacity="0.5" stroke-width="4" stroke-linecap="round"/>
</g>
<defs>
<clipPath id="clip0_3331_7">
<rect width="400" height="230" fill="white"/>
</clipPath>
</defs>
</svg>
