<svg width="22" height="16" viewBox="0 0 22 16" fill="none" xmlns="http://www.w3.org/2000/svg">
<path d="M1.06199 8.34799C0.978646 8.12348 0.978646 7.87651 1.06199 7.65199C1.87369 5.68385 3.2515 4.00103 5.02076 2.81689C6.79001 1.63275 8.87103 1.00061 11 1.00061C13.1289 1.00061 15.21 1.63275 16.9792 2.81689C18.7485 4.00103 20.1263 5.68385 20.938 7.65199C21.0213 7.87651 21.0213 8.12348 20.938 8.34799C20.1263 10.3161 18.7485 11.999 16.9792 13.1831C15.21 14.3672 13.1289 14.9994 11 14.9994C8.87103 14.9994 6.79001 14.3672 5.02076 13.1831C3.2515 11.999 1.87369 10.3161 1.06199 8.34799Z" stroke="white" stroke-width="2" stroke-linecap="round" stroke-linejoin="round"/>
<path d="M11 11C12.6568 11 14 9.65685 14 7.99999C14 6.34314 12.6568 4.99999 11 4.99999C9.34313 4.99999 7.99999 6.34314 7.99999 7.99999C7.99999 9.65685 9.34313 11 11 11Z" stroke="white" stroke-width="2" stroke-linecap="round" stroke-linejoin="round"/>
</svg>
