<svg width="22" height="22" viewBox="0 0 22 22" fill="none" xmlns="http://www.w3.org/2000/svg">
<path d="M9.73299 4.076C12.0624 3.7984 14.4186 4.29082 16.4419 5.47805C18.4651 6.66528 20.0442 8.48208 20.938 10.651C21.0213 10.8755 21.0213 11.1225 20.938 11.347C20.5705 12.238 20.0848 13.0755 19.494 13.837M13.084 13.158C12.5182 13.7045 11.7604 14.0069 10.9738 14C10.1872 13.9932 9.43475 13.6777 8.87853 13.1215C8.32231 12.5652 8.0068 11.8128 7.99996 11.0262C7.99313 10.2396 8.29551 9.48181 8.84199 8.916M16.479 16.499C15.1525 17.2848 13.6724 17.776 12.1393 17.9394C10.6062 18.1028 9.05594 17.9345 7.59362 17.4459C6.1313 16.9573 4.79118 16.1599 3.6642 15.1077C2.53722 14.0556 1.64974 12.7734 1.06199 11.348C0.978646 11.1235 0.978646 10.8765 1.06199 10.652C1.94862 8.50186 3.50866 6.69725 5.50799 5.509M0.999987 1L21 21" stroke="white" stroke-width="2" stroke-linecap="round" stroke-linejoin="round"/>
</svg>
