<svg width="26" height="26" viewBox="0 0 26 26" fill="none" xmlns="http://www.w3.org/2000/svg">
<path d="M11.909 22.8181C9.75141 22.8181 7.64225 22.1783 5.84826 20.9796C4.05427 19.7809 2.65603 18.0771 1.83034 16.0838C1.00466 14.0904 0.788624 11.8969 1.20955 9.78077C1.63048 7.66461 2.66947 5.7208 4.19514 4.19514C5.7208 2.66947 7.66461 1.63048 9.78077 1.20955C11.8969 0.788624 14.0904 1.00466 16.0838 1.83034C18.0771 2.65603 19.7809 4.05427 20.9796 5.84826C22.1783 7.64225 22.8181 9.75141 22.8181 11.909" stroke="white" stroke-width="1.5" stroke-linecap="round" stroke-linejoin="round"/>
<path d="M19.5455 14.0909C16.533 14.0909 14.0909 16.533 14.0909 19.5455C14.0909 22.5579 16.533 25 19.5455 25C22.5579 25 25 22.5579 25 19.5455C25 16.533 22.5579 14.0909 19.5455 14.0909Z" stroke="white" stroke-width="1.5" stroke-linecap="round" stroke-linejoin="round"/>
</svg>
