<svg width="265" height="226" viewBox="0 0 265 226" fill="none" xmlns="http://www.w3.org/2000/svg">
<g style="mix-blend-mode:color-dodge">
<path d="M97.4343 103.086C95.8365 100.32 93.6962 97.9064 91.142 95.991L10.3636 35.3449C9.39923 34.6205 8.67903 33.6179 8.2998 32.4718C7.92074 31.3255 7.90065 30.0906 8.2423 28.9328C8.58396 27.7747 9.27113 26.7492 10.2113 25.9939C11.1517 25.2383 12.3003 24.7891 13.5028 24.7063L250.222 8.59877C251.332 8.50424 252.443 8.72814 253.431 9.24422C254.418 9.7603 255.238 10.5472 255.794 11.5128C256.351 12.4785 256.62 13.5829 256.573 14.6968C256.526 15.8109 256.164 16.8884 255.528 17.8033L123.242 215.105C122.569 216.106 121.606 216.878 120.483 217.316C119.36 217.755 118.13 217.837 116.958 217.556C115.786 217.272 114.728 216.638 113.927 215.735C113.125 214.833 112.619 213.708 112.475 212.509L100.438 112.087C100.054 108.915 99.032 105.853 97.4343 103.086ZM97.4343 103.086L255.745 11.5512Z" fill="#828282" fill-opacity="0.2"/>
<path d="M97.4343 103.086C95.8365 100.32 93.6962 97.9064 91.142 95.991L10.3636 35.3449C9.39923 34.6205 8.67903 33.6179 8.2998 32.4718C7.92074 31.3255 7.90065 30.0906 8.2423 28.9328C8.58396 27.7747 9.27113 26.7492 10.2113 25.9939C11.1517 25.2383 12.3003 24.7891 13.5028 24.7063L250.222 8.59877C251.332 8.50424 252.443 8.72814 253.431 9.24422C254.418 9.7603 255.238 10.5472 255.794 11.5128C256.351 12.4785 256.62 13.5829 256.573 14.6968C256.526 15.8109 256.164 16.8884 255.528 17.8033L123.242 215.105C122.569 216.106 121.606 216.878 120.483 217.316C119.36 217.755 118.13 217.837 116.958 217.556C115.786 217.272 114.728 216.638 113.927 215.735C113.125 214.833 112.619 213.708 112.475 212.509L100.438 112.087C100.054 108.915 99.032 105.853 97.4343 103.086ZM97.4343 103.086L255.745 11.5512" stroke="#FF6969" stroke-width="16" stroke-linecap="round" stroke-linejoin="round"/>
</g>
</svg>
