<svg width="130" height="130" viewBox="0 0 130 130" fill="none" xmlns="http://www.w3.org/2000/svg">
<g clip-path="url(#clip0_2819_37)">
<path d="M102.056 30.4107C107.112 29.9899 110.376 35.6431 107.483 39.8108L64.7683 101.365C61.533 106.028 54.2324 104.009 53.8524 98.3465L51.8503 68.5156C51.7333 66.7726 50.8625 65.1672 49.4654 64.1186L48.7226 63.5611L24.6855 47.5931C19.9479 44.4459 21.8398 37.0879 27.5079 36.6161L102.056 30.4107Z" fill="#FF31AD" fill-opacity="0.2"/>
<path d="M107.845 33.1819L106.609 40.7722L68.8991 92.929L35.8825 35.7426L100.403 30.0229L107.845 33.1819Z" fill="url(#paint0_linear_2819_37)"/>
<path d="M102.178 30.1332C107.235 29.7343 110.475 35.4016 107.564 39.5567L64.5938 100.909C61.3505 105.54 54.0881 103.525 53.6939 97.8854L51.609 68.0618C51.4881 66.3334 50.626 64.7416 49.2445 63.696L48.4563 63.0995L24.4897 46.9967C19.771 43.8262 21.6967 36.482 27.364 36.035L102.178 30.1332Z" stroke="url(#paint1_linear_2819_37)" stroke-width="6"/>
<path d="M106.223 34.1157L52.6538 65.0437" stroke="url(#paint2_linear_2819_37)" stroke-width="4" stroke-linecap="round"/>
</g>
<defs>
<linearGradient id="paint0_linear_2819_37" x1="107.845" y1="33.1819" x2="60" y2="60.5" gradientUnits="userSpaceOnUse">
<stop stop-color="#FF31AD" stop-opacity="0.4"/>
<stop offset="1" stop-color="#FF31AD" stop-opacity="0"/>
</linearGradient>
<linearGradient id="paint1_linear_2819_37" x1="95.9159" y1="91.09" x2="51.2318" y2="13.6948" gradientUnits="userSpaceOnUse">
<stop stop-color="#FF3434"/>
<stop offset="1" stop-color="#FF49A1"/>
</linearGradient>
<linearGradient id="paint2_linear_2819_37" x1="62.7918" y1="21.0667" x2="95.8019" y2="77.6829" gradientUnits="userSpaceOnUse">
<stop stop-color="#FF3434"/>
<stop offset="1" stop-color="#FF49A1"/>
</linearGradient>
<clipPath id="clip0_2819_37">
<rect width="130" height="130" fill="white"/>
</clipPath>
</defs>
</svg>
